<?xml version="1.0" standalone="no"?>
<!DOCTYPE svg PUBLIC "-//W3C//DTD SVG 20010904//EN"
 "http://www.w3.org/TR/2001/REC-SVG-20010904/DTD/svg10.dtd">
<svg version="1.0" xmlns="http://www.w3.org/2000/svg"
 width="16.000000pt" height="16.000000pt" viewBox="0 0 16.000000 16.000000"
 preserveAspectRatio="xMidYMid meet">
<metadata>
Created by potrace 1.11, written by Peter Selinger 2001-2013
</metadata>
<g transform="translate(0.000000,16.000000) scale(0.010000,-0.010000)"
fill="#000000" stroke="none">
<path d="M705 1556 c31 -31 32 -40 45 -381 9 -226 15 -293 26 -305 12 -13 16
-13 28 0 12 12 18 73 27 270 9 206 15 262 29 293 15 31 15 35 2 25 -34 -29
-42 -75 -48 -290 -6 -254 -11 -305 -27 -289 -8 8 -14 103 -20 289 -4 152 -10
297 -13 321 -5 42 -39 91 -63 91 -6 0 1 -11 14 -24z"/>
<path d="M595 1547 c-26 -41 -28 -81 -15 -403 7 -173 9 -318 6 -321 -19 -19
-28 37 -45 268 -19 258 -29 308 -65 322 -11 4 -9 -3 6 -29 17 -28 23 -73 39
-267 22 -272 25 -291 44 -307 11 -9 17 -7 28 12 13 20 14 68 6 346 -7 264 -6
331 5 363 16 44 13 49 -9 16z"/>
<path d="M970 1447 c17 -21 17 -42 6 -407 -9 -281 -4 -332 35 -371 22 -22 78
-26 112 -7 12 6 48 35 80 65 32 29 63 53 69 53 6 0 9 3 6 6 -10 10 -50 -16
-104 -67 -60 -56 -96 -69 -133 -48 -53 30 -60 114 -40 466 12 216 8 273 -24
306 -12 13 -15 15 -7 4z"/>
<path d="M367 1402 c-37 -41 -38 -63 -12 -365 14 -161 27 -297 30 -304 5 -16
-12 -27 -20 -13 -4 6 -18 83 -31 172 -26 170 -30 182 -64 213 l-22 20 20 -35
c17 -31 46 -170 67 -322 7 -50 25 -74 51 -64 15 6 16 17 10 84 -37 416 -43
562 -23 601 18 35 17 38 -6 13z"/>
<path d="M160 1105 c-25 -30 -22 -118 10 -335 83 -565 111 -634 279 -714 65
-30 69 -31 211 -31 164 1 218 15 305 82 46 35 178 220 231 325 30 60 80 101
196 163 85 46 93 53 96 82 2 18 -2 42 -8 53 -13 24 -67 60 -90 60 -9 0 -4 -8
12 -17 30 -19 42 -39 32 -54 -3 -6 -29 -21 -57 -33 -72 -32 -128 -84 -183
-169 -212 -325 -228 -338 -429 -358 -153 -15 -289 -9 -335 15 -103 54 -144
116 -166 254 -8 48 -23 132 -34 187 -10 55 -24 132 -30 170 -6 39 -13 84 -15
100 -25 166 -27 183 -15 205 14 27 8 36 -10 15z"/>
</g>
</svg>
